<?xml version="1.0" standalone="no"?>
<!DOCTYPE svg PUBLIC "-//W3C//DTD SVG 20010904//EN"
 "http://www.w3.org/TR/2001/REC-SVG-20010904/DTD/svg10.dtd">
<svg version="1.0" xmlns="http://www.w3.org/2000/svg"
 width="512.000000pt" height="512.000000pt" viewBox="0 0 512.000000 512.000000"
 preserveAspectRatio="xMidYMid meet">

<g transform="translate(0.000000,512.000000) scale(0.100000,-0.100000)"
fill="#ECEFF4" stroke="none">
<path d="M2395 3984 c-223 -47 -397 -206 -461 -420 -31 -104 -19 -384 21 -481
12 -28 11 -32 -6 -36 -22 -6 -39 -45 -39 -89 0 -35 53 -235 76 -286 9 -21 26
-38 43 -45 27 -10 29 -15 41 -101 18 -132 43 -203 91 -261 l41 -50 -5 -125
c-2 -69 -8 -133 -12 -143 -17 -42 -168 -96 -362 -131 -165 -30 -236 -53 -323
-106 -190 -114 -306 -297 -326 -513 l-7 -77 1392 0 1391 0 0 34 c0 57 -27 178
-54 245 -55 137 -176 263 -319 335 -74 37 -151 58 -342 95 -107 20 -229 60
-274 91 -29 20 -40 75 -41 206 0 91 2 103 21 120 57 51 89 132 109 281 11 83
15 92 36 97 33 9 52 42 75 128 10 40 26 98 34 128 8 30 15 64 15 76 0 36 -21
83 -40 89 -17 5 -17 9 -5 38 39 97 52 379 21 481 -49 164 -160 296 -307 365
-143 68 -323 88 -484 55z m363 -174 c124 -43 215 -133 263 -259 19 -50 21 -71
16 -201 -4 -112 -10 -161 -27 -217 l-23 -71 29 -56 28 -56 -23 -97 c-22 -90
-27 -101 -68 -140 -44 -41 -44 -43 -59 -143 -21 -150 -29 -173 -86 -235 l-51
-56 6 -162 c3 -89 11 -182 18 -207 32 -115 193 -199 469 -245 81 -14 165 -31
188 -39 130 -46 291 -205 327 -323 l6 -23 -1211 0 -1211 0 7 23 c26 86 105
185 200 253 85 61 133 78 305 108 150 26 293 70 366 113 98 57 122 120 130
346 l6 158 -46 47 c-58 59 -72 93 -91 224 -19 127 -21 132 -52 153 -36 23 -54
56 -75 137 -24 95 -24 113 5 171 l24 47 -19 68 c-10 37 -24 119 -31 182 -9
101 -9 126 6 192 36 163 144 271 317 318 99 27 264 22 357 -10z"/>
<path d="M1031 3509 c-114 -22 -221 -100 -275 -199 -55 -100 -66 -178 -66
-454 0 -281 -10 -351 -60 -443 -16 -31 -30 -59 -30 -63 0 -10 70 -41 125 -56
28 -8 85 -17 128 -20 l77 -7 0 -78 c0 -70 -2 -79 -24 -96 -13 -11 -41 -24 -62
-30 -22 -7 -95 -28 -164 -48 -143 -42 -193 -67 -245 -127 -49 -56 -103 -170
-111 -235 l-7 -53 401 0 401 0 17 32 c37 71 172 193 285 257 58 32 165 61 232
61 33 0 37 3 37 25 0 33 -27 49 -128 74 -46 12 -100 29 -120 39 l-37 17 -3 77
-3 77 48 6 c132 17 250 52 273 80 9 10 6 24 -13 62 -54 106 -59 140 -67 443
-7 237 -11 296 -27 351 -50 169 -156 269 -322 305 -72 15 -191 17 -260 3z
m294 -174 c36 -17 67 -42 86 -68 54 -75 61 -116 69 -427 6 -216 12 -299 24
-344 9 -32 14 -61 12 -63 -3 -3 -61 -8 -131 -10 -150 -7 -138 10 -139 -203 -1
-131 1 -148 21 -181 l21 -37 -80 -63 c-44 -34 -103 -89 -132 -121 l-53 -58
-243 2 -243 3 31 31 c24 24 55 38 144 63 212 59 248 72 290 104 82 62 99 130
89 342 l-6 120 -127 5 c-69 3 -129 8 -132 11 -3 3 -1 21 6 40 6 20 14 161 18
344 6 292 8 313 30 369 50 129 137 180 297 173 75 -3 102 -9 148 -32z"/>
<path d="M3818 3504 c-163 -39 -267 -142 -314 -311 -12 -43 -18 -131 -24 -343
-8 -303 -13 -338 -66 -442 -13 -26 -24 -51 -24 -56 0 -5 26 -21 58 -35 57 -25
119 -40 220 -52 l52 -7 0 -74 c0 -90 -1 -90 -154 -133 -120 -34 -136 -43 -136
-76 0 -20 6 -23 65 -29 96 -10 172 -37 255 -91 89 -57 193 -154 227 -212 l25
-43 400 0 401 0 -7 53 c-8 66 -63 180 -116 240 -52 59 -110 86 -298 140 -84
24 -161 52 -172 62 -17 15 -20 31 -20 97 l0 78 34 0 c88 0 260 44 295 76 2 2
-10 31 -28 64 -52 96 -61 163 -61 446 0 217 -3 261 -20 328 -58 228 -209 338
-459 335 -42 0 -102 -7 -133 -15z m298 -162 c56 -28 107 -90 129 -155 15 -43
19 -102 25 -357 4 -168 13 -323 18 -345 6 -22 9 -42 6 -45 -3 -2 -62 -7 -132
-10 l-127 -5 -6 -115 c-9 -159 2 -243 38 -293 37 -52 123 -100 229 -125 170
-42 226 -63 258 -95 l31 -32 -243 -3 -242 -2 -64 67 c-35 38 -95 92 -134 122
l-69 54 21 36 c19 32 21 51 20 181 0 212 10 196 -132 202 -66 3 -124 8 -129
11 -7 4 -5 26 4 64 10 40 17 148 23 343 4 170 12 301 20 325 44 146 142 208
320 202 73 -2 105 -8 136 -25z"/>
</g>
</svg>
