<svg id="svg" version="1.1" xmlns="http://www.w3.org/2000/svg" xmlns:xlink="http://www.w3.org/1999/xlink" width="400" height="400" viewBox="0, 0, 400,400"><g id="svgg"><path id="path0" d="M71.600 86.000 C 71.600 86.220,70.880 86.400,70.000 86.400 C 69.120 86.400,68.400 86.580,68.400 86.800 C 68.400 87.020,67.961 87.200,67.424 87.200 C 66.887 87.200,66.336 87.380,66.200 87.600 C 66.064 87.820,65.603 88.000,65.176 88.000 C 64.749 88.000,64.400 88.180,64.400 88.400 C 64.400 88.620,64.164 88.800,63.875 88.800 C 63.587 88.800,62.964 89.160,62.492 89.600 C 62.020 90.040,61.505 90.400,61.348 90.400 C 61.191 90.400,60.291 91.165,59.348 92.100 C 58.405 93.035,57.221 94.182,56.717 94.648 C 55.440 95.829,54.400 97.141,54.400 97.571 C 54.400 97.770,54.265 97.993,54.100 98.067 C 53.668 98.259,52.000 101.572,52.000 102.238 C 52.000 102.547,51.820 102.800,51.600 102.800 C 51.380 102.800,51.200 103.340,51.200 104.000 C 51.200 104.660,51.020 105.200,50.800 105.200 C 50.580 105.200,50.400 106.089,50.400 107.176 C 50.400 108.263,50.220 109.264,50.000 109.400 C 49.446 109.743,49.446 291.600,50.000 291.600 C 50.220 291.600,50.400 292.579,50.400 293.776 C 50.400 294.973,50.580 296.064,50.800 296.200 C 51.020 296.336,51.200 296.876,51.200 297.400 C 51.200 297.924,51.380 298.464,51.600 298.600 C 51.820 298.736,52.000 299.197,52.000 299.624 C 52.000 300.051,52.180 300.400,52.400 300.400 C 52.620 300.400,52.800 300.760,52.800 301.200 C 52.800 301.640,52.980 302.000,53.200 302.000 C 53.420 302.000,53.600 302.236,53.600 302.525 C 53.600 302.813,53.960 303.436,54.400 303.908 C 54.840 304.380,55.200 304.862,55.200 304.979 C 55.200 305.095,55.515 305.576,55.900 306.046 C 57.472 307.966,58.477 308.800,59.218 308.800 C 59.733 308.800,60.000 309.073,60.000 309.600 C 60.000 310.044,60.267 310.400,60.600 310.400 C 60.930 310.400,61.200 310.580,61.200 310.800 C 61.200 311.020,61.470 311.200,61.800 311.200 C 62.130 311.200,62.400 311.380,62.400 311.600 C 62.400 311.820,62.670 312.000,63.000 312.000 C 63.330 312.000,63.600 312.180,63.600 312.400 C 63.600 312.620,63.960 312.800,64.400 312.800 C 64.840 312.800,65.200 312.980,65.200 313.200 C 65.200 313.420,65.549 313.600,65.976 313.600 C 66.403 313.600,66.864 313.780,67.000 314.000 C 67.136 314.220,67.676 314.400,68.200 314.400 C 68.724 314.400,69.264 314.580,69.400 314.800 C 69.536 315.020,70.627 315.200,71.824 315.200 C 73.021 315.200,74.000 315.380,74.000 315.600 C 74.000 315.866,116.400 316.000,200.400 316.000 C 284.400 316.000,326.800 315.866,326.800 315.600 C 326.800 315.380,327.700 315.200,328.800 315.200 C 329.900 315.200,330.800 315.020,330.800 314.800 C 330.800 314.580,331.329 314.400,331.976 314.400 C 332.623 314.400,333.264 314.220,333.400 314.000 C 333.536 313.780,334.087 313.600,334.624 313.600 C 335.161 313.600,335.600 313.420,335.600 313.200 C 335.600 312.980,335.960 312.800,336.400 312.800 C 336.840 312.800,337.200 312.650,337.200 312.468 C 337.200 312.285,337.695 311.881,338.300 311.570 C 338.905 311.260,339.691 310.689,340.047 310.303 C 340.403 309.916,340.828 309.600,340.991 309.600 C 341.396 309.600,344.800 306.121,344.800 305.707 C 344.800 305.525,345.160 305.117,345.600 304.800 C 346.040 304.483,346.400 303.903,346.400 303.512 C 346.400 303.120,346.547 302.800,346.726 302.800 C 347.192 302.800,348.800 299.669,348.800 298.762 C 348.800 298.343,348.980 298.000,349.200 298.000 C 349.420 298.000,349.600 297.460,349.600 296.800 C 349.600 296.140,349.780 295.600,350.000 295.600 C 350.266 295.600,350.400 263.733,350.400 200.800 C 350.400 137.867,350.266 106.000,350.000 106.000 C 349.780 106.000,349.600 105.381,349.600 104.624 C 349.600 103.867,349.420 103.136,349.200 103.000 C 348.980 102.864,348.800 102.403,348.800 101.976 C 348.800 101.549,348.620 101.200,348.400 101.200 C 348.180 101.200,348.000 100.840,348.000 100.400 C 348.000 99.960,347.820 99.600,347.600 99.600 C 347.380 99.600,347.200 99.280,347.200 98.888 C 347.200 98.497,346.840 97.917,346.400 97.600 C 345.960 97.283,345.600 96.793,345.600 96.512 C 345.600 96.230,345.420 96.000,345.200 96.000 C 344.980 96.000,344.800 95.770,344.800 95.488 C 344.800 95.207,344.416 94.712,343.946 94.388 C 343.476 94.065,342.326 93.035,341.390 92.100 C 340.454 91.165,339.488 90.400,339.244 90.400 C 339.000 90.400,338.800 90.220,338.800 90.000 C 338.800 89.780,338.530 89.600,338.200 89.600 C 337.870 89.600,337.600 89.464,337.600 89.298 C 337.600 89.131,337.015 88.760,336.300 88.471 C 335.585 88.183,334.687 87.779,334.305 87.574 C 333.923 87.368,333.338 87.200,333.005 87.200 C 332.672 87.200,332.400 87.020,332.400 86.800 C 332.400 86.580,331.680 86.400,330.800 86.400 C 329.920 86.400,329.200 86.220,329.200 86.000 C 329.200 85.734,286.000 85.600,200.400 85.600 C 114.800 85.600,71.600 85.734,71.600 86.000 M323.400 104.000 C 323.536 104.220,324.267 104.400,325.024 104.400 C 325.781 104.400,326.400 104.580,326.400 104.800 C 326.400 105.020,326.616 105.200,326.881 105.200 C 327.537 105.200,330.000 107.631,330.000 108.278 C 330.000 108.565,330.175 108.800,330.388 108.800 C 330.601 108.800,306.475 133.100,276.773 162.800 C 247.072 192.500,222.580 216.800,222.346 216.800 C 222.112 216.800,221.417 217.340,220.800 218.000 C 220.183 218.660,219.431 219.200,219.128 219.200 C 218.825 219.200,218.317 219.560,218.000 220.000 C 217.683 220.440,217.103 220.800,216.712 220.800 C 216.320 220.800,216.000 220.980,216.000 221.200 C 216.000 221.420,215.640 221.600,215.200 221.600 C 214.760 221.600,214.400 221.780,214.400 222.000 C 214.400 222.220,213.950 222.400,213.400 222.400 C 212.850 222.400,212.400 222.580,212.400 222.800 C 212.400 223.020,211.950 223.200,211.400 223.200 C 210.850 223.200,210.400 223.380,210.400 223.600 C 210.400 223.820,209.770 224.000,209.000 224.000 C 208.230 224.000,207.600 224.180,207.600 224.400 C 207.600 224.622,206.533 224.800,205.200 224.800 C 203.867 224.800,202.800 224.978,202.800 225.200 C 202.800 225.433,201.467 225.600,199.600 225.600 C 197.733 225.600,196.400 225.433,196.400 225.200 C 196.400 224.978,195.333 224.800,194.000 224.800 C 192.667 224.800,191.600 224.622,191.600 224.400 C 191.600 224.180,191.060 224.000,190.400 224.000 C 189.740 224.000,189.200 223.820,189.200 223.600 C 189.200 223.380,188.761 223.200,188.224 223.200 C 187.687 223.200,187.136 223.020,187.000 222.800 C 186.864 222.580,186.313 222.400,185.776 222.400 C 185.239 222.400,184.800 222.220,184.800 222.000 C 184.800 221.780,184.522 221.600,184.183 221.600 C 183.844 221.600,183.180 221.240,182.708 220.800 C 182.236 220.360,181.613 220.000,181.325 220.000 C 181.036 220.000,180.800 219.820,180.800 219.600 C 180.800 219.380,180.547 219.200,180.239 219.200 C 179.930 219.200,177.725 217.346,175.339 215.081 C 172.952 212.815,169.929 209.980,168.620 208.781 C 167.311 207.581,164.477 204.800,162.323 202.600 C 160.169 200.400,157.320 197.520,155.992 196.200 C 154.664 194.880,150.433 190.650,146.590 186.800 C 142.747 182.950,139.467 179.664,139.301 179.499 C 139.136 179.333,135.850 176.060,132.000 172.226 C 128.150 168.391,124.820 165.061,124.600 164.825 C 124.380 164.588,111.825 152.061,96.700 136.986 C 80.149 120.489,69.200 109.282,69.200 108.838 C 69.200 107.263,72.734 104.405,74.695 104.394 C 75.303 104.391,76.070 104.213,76.400 104.000 C 77.240 103.457,323.064 103.457,323.400 104.000 M71.854 138.552 C 73.527 140.176,75.411 142.021,76.041 142.652 C 77.039 143.652,90.707 157.327,92.890 159.510 C 93.330 159.950,97.045 163.664,101.145 167.765 C 105.245 171.865,108.935 175.555,109.345 175.965 C 111.443 178.062,125.058 191.670,126.095 192.705 C 126.755 193.365,128.627 195.276,130.254 196.952 L 133.212 200.000 130.306 203.000 C 128.708 204.649,126.453 206.945,125.296 208.100 C 124.139 209.255,120.246 213.147,116.645 216.748 C 107.685 225.708,106.956 226.437,99.897 233.497 C 96.487 236.907,92.797 240.597,91.697 241.697 C 90.597 242.797,86.930 246.463,83.548 249.845 C 80.167 253.226,76.456 256.939,75.301 258.096 C 71.854 261.551,68.830 264.400,68.608 264.400 C 68.494 264.400,68.400 235.420,68.400 200.000 C 68.400 164.580,68.493 135.600,68.606 135.600 C 68.720 135.600,70.181 136.929,71.854 138.552 M330.800 200.000 C 330.800 235.420,330.686 264.400,330.547 264.400 C 330.238 264.400,326.781 261.091,323.464 257.621 C 322.109 256.202,318.417 252.512,315.261 249.421 C 312.104 246.329,308.774 243.008,307.861 242.040 C 306.947 241.072,303.230 237.345,299.600 233.759 C 291.300 225.558,292.650 226.909,285.048 219.200 C 281.468 215.570,277.742 211.856,276.769 210.947 C 275.796 210.038,272.976 207.193,270.501 204.626 L 266.002 199.958 298.101 167.804 C 315.756 150.119,330.335 135.638,330.500 135.625 C 330.665 135.611,330.800 164.580,330.800 200.000 M152.703 219.409 C 155.947 222.605,158.914 225.530,159.298 225.909 C 159.681 226.289,161.429 228.085,163.180 229.900 C 164.932 231.715,166.527 233.200,166.724 233.200 C 166.920 233.200,167.646 233.740,168.337 234.400 C 169.028 235.060,169.782 235.600,170.013 235.600 C 170.244 235.600,170.820 235.960,171.292 236.400 C 171.764 236.840,172.387 237.200,172.675 237.200 C 172.964 237.200,173.200 237.380,173.200 237.600 C 173.200 237.820,173.560 238.000,174.000 238.000 C 174.440 238.000,174.800 238.180,174.800 238.400 C 174.800 238.620,175.145 238.800,175.567 238.800 C 175.988 238.800,176.393 238.935,176.467 239.100 C 176.742 239.719,180.045 241.158,181.794 241.420 C 182.793 241.570,183.708 241.852,183.829 242.046 C 183.949 242.241,184.577 242.400,185.224 242.400 C 185.871 242.400,186.400 242.580,186.400 242.800 C 186.400 243.020,187.300 243.200,188.400 243.200 C 189.500 243.200,190.400 243.380,190.400 243.600 C 190.400 243.855,193.659 244.000,199.376 244.000 C 204.929 244.000,208.447 243.847,208.600 243.600 C 208.736 243.380,209.557 243.200,210.424 243.200 C 211.291 243.200,212.000 243.020,212.000 242.800 C 212.000 242.580,212.720 242.400,213.600 242.400 C 214.480 242.400,215.200 242.220,215.200 242.000 C 215.200 241.780,215.668 241.600,216.240 241.600 C 216.811 241.600,217.936 241.311,218.740 240.957 C 222.267 239.405,225.200 237.854,225.200 237.540 C 225.200 237.353,225.560 237.200,226.000 237.200 C 226.440 237.200,226.800 237.020,226.800 236.800 C 226.800 236.580,227.025 236.400,227.300 236.400 C 227.575 236.399,228.323 235.949,228.962 235.400 C 229.601 234.850,230.270 234.400,230.449 234.400 C 230.627 234.400,231.364 233.812,232.087 233.093 C 232.809 232.375,233.958 231.392,234.640 230.909 C 235.322 230.426,239.589 226.334,244.122 221.816 C 248.655 217.297,252.559 213.600,252.797 213.600 C 253.036 213.600,254.847 215.265,256.822 217.300 C 258.797 219.335,261.316 221.900,262.419 223.000 C 263.523 224.100,267.368 227.947,270.965 231.548 C 279.013 239.607,279.180 239.774,287.309 247.891 C 290.941 251.519,294.813 255.387,295.913 256.487 C 298.501 259.076,309.724 270.299,312.313 272.887 C 330.639 291.213,330.000 290.536,330.000 291.617 C 330.000 292.551,329.703 292.898,327.431 294.614 L 325.862 295.800 200.031 295.800 C 81.106 295.800,74.123 295.762,72.800 295.102 C 70.408 293.908,69.200 292.548,69.200 291.048 C 69.200 290.347,145.549 213.695,146.303 213.638 C 146.580 213.617,149.460 216.214,152.703 219.409 " stroke="none" fill="#ECEFF4" fill-rule="evenodd"></path><path id="path1" d="" stroke="none" fill="#184464" fill-rule="evenodd"></path><path id="path2" d="" stroke="none" fill="#184464" fill-rule="evenodd"></path><path id="path3" d="" stroke="none" fill="#184464" fill-rule="evenodd"></path><path id="path4" d="" stroke="none" fill="#184464" fill-rule="evenodd"></path></g></svg>