<?xml version="1.0" standalone="no"?>
<!DOCTYPE svg PUBLIC "-//W3C//DTD SVG 20010904//EN"
 "http://www.w3.org/TR/2001/REC-SVG-20010904/DTD/svg10.dtd">
<svg version="1.0" xmlns="http://www.w3.org/2000/svg"
 width="512.000000pt" height="512.000000pt" viewBox="0 0 512.000000 512.000000"
 preserveAspectRatio="xMidYMid meet">

<g transform="translate(0.000000,512.000000) scale(0.100000,-0.100000)"
fill="#ECEFF4" stroke="none">
<path d="M4615 4213 c-245 -173 -349 -234 -452 -267 l-52 -17 -58 39 c-296
201 -657 237 -961 96 -168 -77 -358 -234 -449 -369 -80 -119 -137 -254 -163
-387 -14 -69 -11 -69 -146 -29 -274 79 -496 195 -719 376 -110 89 -172 153
-349 358 l-136 158 -90 -138 c-109 -167 -171 -288 -207 -408 -29 -98 -28 -72
-34 -705 -3 -249 -2 -257 24 -354 32 -121 75 -216 143 -322 40 -63 59 -106 83
-195 56 -201 133 -339 268 -480 l74 -77 -63 -12 c-148 -28 -330 -24 -832 19
-264 22 -480 40 -482 38 -2 -2 600 -445 715 -525 280 -196 632 -331 1011 -389
140 -21 499 -24 635 -5 569 80 1035 303 1404 671 326 325 558 764 665 1261 29
135 56 328 56 404 l0 53 82 79 c221 213 242 249 374 622 58 167 104 305 102
308 -3 2 -62 -23 -133 -56 -70 -34 -129 -59 -132 -57 -3 4 65 400 81 470 2 9
1 17 -2 17 -4 0 -119 -80 -257 -177z m-910 -357 c109 -38 183 -78 267 -149
l71 -59 86 22 c118 31 228 72 308 114 37 20 68 34 70 32 8 -8 -38 -112 -77
-170 -39 -61 -142 -168 -205 -214 -37 -27 -25 -27 90 -3 74 15 191 54 289 96
19 8 19 8 0 -24 -36 -62 -144 -181 -247 -270 l-103 -90 -12 -173 c-14 -192
-29 -288 -72 -458 -76 -302 -206 -578 -386 -821 -90 -122 -275 -310 -391 -397
-278 -210 -602 -344 -988 -408 -169 -29 -515 -26 -690 5 -169 30 -332 77 -476
138 -118 51 -269 129 -308 160 -21 17 -19 18 87 15 328 -10 655 76 893 234 36
25 79 58 94 74 l29 30 -56 0 c-136 0 -309 63 -420 154 -63 51 -154 167 -193
245 -27 55 -57 131 -51 131 2 0 23 -7 46 -15 51 -18 142 -19 230 -1 l65 12
-57 17 c-32 10 -99 39 -150 65 -219 111 -367 339 -394 605 -3 37 -4 67 -1 67
3 0 21 -9 39 -20 18 -10 54 -26 78 -35 55 -19 186 -39 201 -29 7 4 -10 25 -42
52 -120 105 -219 263 -253 403 -23 92 -21 247 4 343 19 76 67 196 78 196 3 0
67 -60 141 -133 201 -197 377 -321 617 -437 207 -100 510 -183 717 -197 l92
-6 0 139 c0 164 14 226 80 360 75 154 217 289 390 370 114 55 161 64 305 60
104 -3 138 -8 205 -30z"/>
</g>
</svg>
