<?xml version="1.0" standalone="no"?>
<!DOCTYPE svg PUBLIC "-//W3C//DTD SVG 20010904//EN"
 "http://www.w3.org/TR/2001/REC-SVG-20010904/DTD/svg10.dtd">
<svg version="1.0" xmlns="http://www.w3.org/2000/svg"
 width="512.000000pt" height="512.000000pt" viewBox="0 0 512.000000 512.000000"
 preserveAspectRatio="xMidYMid meet">

<g transform="translate(0.000000,512.000000) scale(0.100000,-0.100000)"
fill="#ECEFF4" stroke="none">
<path d="M2455 4444 c-494 -54 -884 -320 -1098 -749 -148 -297 -176 -624 -82
-949 45 -155 94 -276 195 -481 213 -435 542 -925 985 -1470 53 -66 101 -120
105 -120 11 0 244 287 389 480 319 424 539 774 711 1129 184 378 248 618 237
885 -14 345 -157 655 -414 902 -192 184 -437 310 -686 353 -93 17 -275 27
-342 20z m242 -189 c101 -9 242 -48 349 -99 323 -153 543 -421 635 -775 29
-110 36 -318 15 -439 -71 -407 -389 -994 -920 -1697 -162 -214 -210 -274 -217
-272 -25 8 -377 486 -544 737 -275 416 -433 716 -530 1005 -56 167 -75 271
-75 405 0 443 256 842 663 1035 152 72 378 120 512 109 22 -2 72 -6 112 -9z"/>
<path d="M2398 3587 c-344 -118 -459 -544 -220 -818 202 -230 562 -230 764 0
204 234 156 587 -103 760 -124 83 -300 106 -441 58z m277 -184 c70 -23 154
-108 184 -188 59 -157 -19 -336 -177 -408 -65 -29 -179 -29 -244 0 -62 28
-134 96 -166 158 -23 43 -27 62 -27 140 0 78 4 97 27 140 31 59 104 130 155
152 84 35 152 36 248 6z"/>
</g>
</svg>
