<?xml version="1.0" standalone="no"?>
<!DOCTYPE svg PUBLIC "-//W3C//DTD SVG 20010904//EN"
 "http://www.w3.org/TR/2001/REC-SVG-20010904/DTD/svg10.dtd">
<svg version="1.0" xmlns="http://www.w3.org/2000/svg"
 width="512.000000pt" height="512.000000pt" viewBox="0 0 512.000000 512.000000"
 preserveAspectRatio="xMidYMid meet">

<g transform="translate(0.000000,512.000000) scale(0.100000,-0.100000)"
fill="#ECEFF4" stroke="none">
<path d="M3443 4466 c-128 -25 -257 -77 -363 -149 -64 -43 -402 -379 -460
-458 -143 -191 -206 -449 -166 -675 8 -51 20 -104 26 -120 l11 -28 95 95 94
94 3 120 c6 225 53 309 325 576 199 196 262 242 382 280 91 30 263 37 350 15
244 -61 432 -252 486 -492 21 -99 15 -252 -15 -337 -46 -132 -77 -174 -276
-373 -204 -206 -260 -249 -389 -297 -70 -26 -96 -31 -194 -33 l-113 -2 -97
-90 c-53 -49 -94 -93 -91 -96 4 -4 51 -16 105 -28 162 -33 346 -17 504 44 132
51 208 107 394 288 98 96 205 208 238 248 194 244 245 575 131 861 -108 270
-352 481 -634 546 -100 23 -257 28 -346 11z"/>
<path d="M3160 3329 c-30 -12 -1315 -1293 -1336 -1331 -51 -97 28 -213 133
-193 34 6 113 82 696 663 720 720 705 703 676 785 -8 22 -26 49 -40 59 -31 23
-94 32 -129 17z"/>
<path d="M1695 2679 c-133 -17 -280 -74 -395 -152 -57 -39 -398 -374 -455
-448 -134 -172 -193 -366 -182 -592 9 -187 70 -349 187 -498 302 -387 869
-449 1255 -138 116 94 386 376 443 464 97 147 142 303 142 486 0 98 -20 243
-38 276 -5 7 -43 -22 -107 -81 l-99 -93 2 -79 c4 -107 -19 -211 -69 -314 -38
-77 -59 -102 -218 -264 -229 -232 -310 -289 -466 -331 -78 -21 -231 -21 -310
0 -292 77 -487 330 -488 631 0 115 15 177 65 284 38 79 55 99 227 273 207 210
279 265 410 311 75 26 100 30 199 31 l113 1 94 94 c70 69 91 96 81 102 -57 32
-276 53 -391 37z"/>
</g>
</svg>
