<?xml version="1.0" standalone="no"?>
<!DOCTYPE svg PUBLIC "-//W3C//DTD SVG 20010904//EN"
 "http://www.w3.org/TR/2001/REC-SVG-20010904/DTD/svg10.dtd">
<svg version="1.0" xmlns="http://www.w3.org/2000/svg"
 width="512.000000pt" height="512.000000pt" viewBox="0 0 512.000000 512.000000"
 preserveAspectRatio="xMidYMid meet">

<g transform="translate(0.000000,512.000000) scale(0.100000,-0.100000)"
fill="#ECEFF4" stroke="none">
<path d="M825 4535 l-25 -24 0 -2056 0 -2055 -255 0 -256 0 -24 -25 c-33 -32
-33 -78 0 -110 l24 -25 2271 0 2271 0 24 25 c33 32 33 78 0 110 l-24 25 -256
0 -255 0 0 2055 0 2056 -25 24 -24 25 -1711 0 -1711 0 -24 -25z m3335 -2135
l0 -2000 -360 0 -360 0 0 775 0 776 -25 24 -24 25 -831 0 -831 0 -24 -25 -25
-24 0 -776 0 -775 -360 0 -360 0 0 2000 0 2000 1600 0 1600 0 0 -2000z m-880
-1280 l0 -720 -720 0 -720 0 0 720 0 720 720 0 720 0 0 -720z"/>
<path d="M1705 3975 l-25 -24 0 -271 0 -271 25 -24 24 -25 831 0 831 0 24 25
25 24 0 271 0 271 -25 24 -24 25 -831 0 -831 0 -24 -25z m775 -295 l0 -160
-320 0 -320 0 0 160 0 160 320 0 320 0 0 -160z m800 0 l0 -160 -320 0 -320 0
0 160 0 160 320 0 320 0 0 -160z"/>
<path d="M1705 3015 l-25 -24 0 -271 0 -271 25 -24 24 -25 831 0 831 0 24 25
25 24 0 271 0 271 -25 24 -24 25 -831 0 -831 0 -24 -25z m775 -295 l0 -160
-320 0 -320 0 0 160 0 160 320 0 320 0 0 -160z m800 0 l0 -160 -320 0 -320 0
0 160 0 160 320 0 320 0 0 -160z"/>
<path d="M2345 1215 c-22 -21 -25 -33 -25 -95 0 -62 3 -74 25 -95 15 -16 36
-25 55 -25 19 0 40 9 55 25 22 21 25 33 25 95 0 62 -3 74 -25 95 -15 16 -36
25 -55 25 -19 0 -40 -9 -55 -25z"/>
<path d="M2665 1215 c-22 -21 -25 -33 -25 -95 0 -62 3 -74 25 -95 15 -16 36
-25 55 -25 19 0 40 9 55 25 22 21 25 33 25 95 0 62 -3 74 -25 95 -15 16 -36
25 -55 25 -19 0 -40 -9 -55 -25z"/>
</g>
</svg>
