<?xml version="1.0" standalone="no"?>
<!DOCTYPE svg PUBLIC "-//W3C//DTD SVG 20010904//EN"
 "http://www.w3.org/TR/2001/REC-SVG-20010904/DTD/svg10.dtd">
<svg version="1.0" xmlns="http://www.w3.org/2000/svg"
 width="512.000000pt" height="512.000000pt" viewBox="0 0 512.000000 512.000000"
 preserveAspectRatio="xMidYMid meet">

<g transform="translate(0.000000,512.000000) scale(0.100000,-0.100000)"
fill="#ECEFF4" stroke="none">
<path d="M2509 4356 c-14 -8 -30 -25 -36 -39 -9 -20 -276 -835 -383 -1169
l-31 -98 -679 -2 -680 -3 -27 -27 c-33 -34 -37 -86 -8 -119 11 -11 254 -190
540 -397 286 -206 526 -381 534 -388 11 -10 -20 -116 -193 -647 -113 -350
-206 -645 -206 -655 0 -11 12 -35 27 -52 23 -28 31 -31 67 -28 36 3 111 54
584 396 l542 393 541 -391 c376 -272 551 -393 574 -397 45 -7 85 31 85 79 0
18 -92 316 -205 663 -112 346 -201 632 -197 636 4 3 249 181 546 395 296 214
543 399 549 411 17 37 0 92 -36 113 -31 19 -56 20 -702 20 l-670 0 -204 633
c-133 411 -212 640 -225 654 -27 29 -74 37 -107 19z m237 -925 c144 -449 172
-526 193 -540 22 -14 89 -17 583 -21 l558 -5 -449 -324 c-319 -229 -453 -332
-461 -351 -10 -25 8 -87 160 -560 95 -292 170 -533 168 -535 -1 -1 -205 143
-452 321 -373 269 -454 324 -482 324 -34 0 -49 -10 -696 -478 -131 -94 -238
-166 -238 -161 0 6 74 241 165 521 91 281 165 526 165 543 0 25 -8 40 -33 61
-18 16 -223 166 -456 334 l-423 305 566 5 566 5 24 25 c18 19 66 157 192 547
93 288 171 519 175 515 3 -4 82 -243 175 -531z"/>
</g>
</svg>
