<?xml version="1.0" standalone="no"?>
<!DOCTYPE svg PUBLIC "-//W3C//DTD SVG 20010904//EN"
 "http://www.w3.org/TR/2001/REC-SVG-20010904/DTD/svg10.dtd">
<svg version="1.0" xmlns="http://www.w3.org/2000/svg"
 width="512.000000pt" height="512.000000pt" viewBox="0 0 512.000000 512.000000"
 preserveAspectRatio="xMidYMid meet">

<g transform="translate(0.000000,512.000000) scale(0.100000,-0.100000)"
fill="#ECEFF4" stroke="none">
<path d="M1483 4215 c-362 -66 -661 -322 -779 -668 -95 -278 -62 -631 85 -920
101 -198 248 -383 517 -649 220 -217 402 -379 784 -696 162 -135 334 -279 383
-319 l87 -73 88 73 c48 40 208 174 356 297 942 780 1291 1172 1415 1585 29 98
51 252 51 366 0 637 -554 1107 -1185 1004 -232 -38 -423 -142 -622 -341 l-103
-102 -102 102 c-161 161 -313 257 -488 309 -155 47 -339 59 -487 32z m382
-216 c202 -49 347 -150 569 -399 66 -74 123 -135 126 -135 3 0 60 61 126 135
175 197 272 277 417 345 115 55 213 76 352 77 148 0 241 -22 375 -89 81 -40
109 -62 195 -148 86 -86 108 -114 148 -195 67 -134 88 -226 88 -377 0 -184
-33 -328 -112 -485 -164 -327 -554 -718 -1458 -1462 l-131 -108 -53 43 c-554
457 -817 689 -1063 934 -208 207 -281 291 -379 435 -236 345 -275 741 -104
1050 57 102 197 242 299 299 186 103 396 131 605 80z"/>
</g>
</svg>
